<?xml version="1.0" encoding="UTF-8" standalone="no"?>
<svg width="863.6mm" height="558.8mm"
 viewBox="0 0 10200 6600"
 xmlns="http://www.w3.org/2000/svg" xmlns:xlink="http://www.w3.org/1999/xlink"  version="1.2" baseProfile="tiny">
<defs>
</defs>
<g fill="none" stroke="black" stroke-width="1" fill-rule="evenodd" stroke-linecap="square" stroke-linejoin="bevel" >

<g fill="#ffffff" fill-opacity="1" stroke="none" transform="matrix(1,0,0,1,0,0)"
font-family="Arial" font-size="12" font-weight="400" font-style="normal" 
>
<rect x="0" y="0" width="10200" height="6600"/>
</g>

<g fill="none" stroke="#000000" stroke-opacity="1" stroke-width="1" stroke-linecap="square" stroke-linejoin="bevel" transform="matrix(1,0,0,1,0,0)"
font-family="Arial" font-size="12" font-weight="400" font-style="normal" 
>
</g>

<g fill="#000000" fill-opacity="1" stroke="#000000" stroke-opacity="1" stroke-width="1" stroke-linecap="butt" stroke-linejoin="miter" stroke-miterlimit="2" transform="matrix(1,0,0,1,0,0)"
font-family="Arial" font-size="12" font-weight="400" font-style="normal" 
>
</g>

<g fill="#000000" fill-opacity="1" stroke="#000000" stroke-opacity="1" stroke-width="5" stroke-linecap="round" stroke-linejoin="bevel" transform="matrix(1,0,0,1,0,0)"
font-family="Arial" font-size="12" font-weight="400" font-style="normal" 
>
<polyline fill="none" vector-effect="none" points="3952.51,347.013 427.509,347.013 " />
<polyline fill="none" vector-effect="none" points="3952.51,5147.01 427.509,5147.01 " />
<polyline fill="none" vector-effect="none" points="690.009,4884.51 3690.01,4884.51 " />
<polyline fill="none" vector-effect="none" points="3690.01,3534.51 3690.01,4884.51 " />
<polyline fill="none" vector-effect="none" points="690.009,3534.51 3690.01,3534.51 " />
<polyline fill="none" vector-effect="none" points="690.009,3534.51 690.009,4884.51 " />
<polyline fill="none" vector-effect="none" points="690.009,3234.51 3690.01,3234.51 " />
<polyline fill="none" vector-effect="none" points="3690.01,609.513 3690.01,3234.51 " />
<polyline fill="none" vector-effect="none" points="690.009,609.513 3690.01,609.513 " />
<polyline fill="none" vector-effect="none" points="690.009,609.513 690.009,3234.51 " />
<polyline fill="none" vector-effect="none" points="427.509,347.013 427.509,5147.01 " />
<polyline fill="none" vector-effect="none" points="3952.51,347.013 3952.51,5147.01 " />
<polyline fill="none" vector-effect="none" points="5022.18,479.596 8547.18,479.596 " />
<polyline fill="none" vector-effect="none" points="8547.18,479.596 8547.18,5279.6 " />
<polyline fill="none" vector-effect="none" points="5022.18,5279.6 8547.18,5279.6 " />
<polyline fill="none" vector-effect="none" points="5022.18,479.596 5022.18,5279.6 " />
</g>

<g fill="none" stroke="#000000" stroke-opacity="1" stroke-width="1" stroke-linecap="square" stroke-linejoin="bevel" transform="matrix(1,0,0,1,0,0)"
font-family="Arial" font-size="12" font-weight="400" font-style="normal" 
>
</g>
</g>
</svg>
