<?xml version="1.0" encoding="UTF-8" standalone="no"?>
<svg width="863.6mm" height="558.8mm"
 viewBox="0 0 10200 6600"
 xmlns="http://www.w3.org/2000/svg" xmlns:xlink="http://www.w3.org/1999/xlink"  version="1.2" baseProfile="tiny">
<defs>
</defs>
<g fill="none" stroke="black" stroke-width="1" fill-rule="evenodd" stroke-linecap="square" stroke-linejoin="bevel" >

<g fill="#ffffff" fill-opacity="1" stroke="none" transform="matrix(1,0,0,1,0,0)"
font-family="Arial" font-size="12" font-weight="400" font-style="normal" 
>
<rect x="0" y="0" width="10200" height="6600"/>
</g>

<g fill="none" stroke="#000000" stroke-opacity="1" stroke-width="1" stroke-linecap="square" stroke-linejoin="bevel" transform="matrix(1,0,0,1,0,0)"
font-family="Arial" font-size="12" font-weight="400" font-style="normal" 
>
</g>

<g fill="#000000" fill-opacity="1" stroke="#000000" stroke-opacity="1" stroke-width="1" stroke-linecap="butt" stroke-linejoin="miter" stroke-miterlimit="2" transform="matrix(1,0,0,1,0,0)"
font-family="Arial" font-size="12" font-weight="400" font-style="normal" 
>
</g>

<g fill="#000000" fill-opacity="1" stroke="#000000" stroke-opacity="1" stroke-width="5" stroke-linecap="round" stroke-linejoin="bevel" transform="matrix(1,0,0,1,0,0)"
font-family="Arial" font-size="12" font-weight="400" font-style="normal" 
>
<polyline fill="none" vector-effect="none" points="4445.5,3895.71 920.5,3895.71 " />
<polyline fill="none" vector-effect="none" points="4445.5,5995.71 920.5,5995.71 " />
<polyline fill="none" vector-effect="none" points="920.5,5995.71 920.5,3895.71 " />
<polyline fill="none" vector-effect="none" points="4445.5,5995.71 4445.5,3895.71 " />
<polyline fill="none" vector-effect="none" points="5532.12,3596.25 5532.12,596.252 " />
<polyline fill="none" vector-effect="none" points="9132.12,3596.25 5532.12,3596.25 " />
<polyline fill="none" vector-effect="none" points="9132.12,3596.25 9132.12,596.252 " />
<polyline fill="none" vector-effect="none" points="9132.12,596.252 5532.12,596.252 " />
<polyline fill="none" vector-effect="none" points="763.395,3415.97 763.395,415.969 " />
<polyline fill="none" vector-effect="none" points="4363.4,3415.97 763.395,3415.97 " />
<polyline fill="none" vector-effect="none" points="4363.4,3415.97 4363.4,415.969 " />
<polyline fill="none" vector-effect="none" points="4363.4,415.969 763.395,415.969 " />
</g>

<g fill="none" stroke="#000000" stroke-opacity="1" stroke-width="1" stroke-linecap="square" stroke-linejoin="bevel" transform="matrix(1,0,0,1,0,0)"
font-family="Arial" font-size="12" font-weight="400" font-style="normal" 
>
</g>
</g>
</svg>
