<?xml version="1.0" encoding="UTF-8" standalone="no"?>
<svg width="863.6mm" height="558.8mm"
 viewBox="0 0 10200 6600"
 xmlns="http://www.w3.org/2000/svg" xmlns:xlink="http://www.w3.org/1999/xlink"  version="1.2" baseProfile="tiny">
<defs>
</defs>
<g fill="none" stroke="black" stroke-width="1" fill-rule="evenodd" stroke-linecap="square" stroke-linejoin="bevel" >

<g fill="#ffffff" fill-opacity="1" stroke="none" transform="matrix(1,0,0,1,0,0)"
font-family="Arial" font-size="12" font-weight="400" font-style="normal" 
>
<rect x="0" y="0" width="10200" height="6600"/>
</g>

<g fill="none" stroke="#000000" stroke-opacity="1" stroke-width="1" stroke-linecap="square" stroke-linejoin="bevel" transform="matrix(1,0,0,1,0,0)"
font-family="Arial" font-size="12" font-weight="400" font-style="normal" 
>
</g>

<g fill="#000000" fill-opacity="1" stroke="#000000" stroke-opacity="1" stroke-width="1" stroke-linecap="butt" stroke-linejoin="miter" stroke-miterlimit="2" transform="matrix(1,0,0,1,0,0)"
font-family="Arial" font-size="12" font-weight="400" font-style="normal" 
>
</g>

<g fill="#000000" fill-opacity="1" stroke="#000000" stroke-opacity="1" stroke-width="5" stroke-linecap="round" stroke-linejoin="bevel" transform="matrix(1,0,0,1,0,0)"
font-family="Arial" font-size="12" font-weight="400" font-style="normal" 
>
<polyline fill="none" vector-effect="none" points="536.565,628.932 4061.57,628.932 " />
<polyline fill="none" vector-effect="none" points="4061.57,628.932 4061.57,5428.93 " />
<polyline fill="none" vector-effect="none" points="536.565,5428.93 4061.57,5428.93 " />
<polyline fill="none" vector-effect="none" points="836.565,891.432 3761.57,891.432 " />
<polyline fill="none" vector-effect="none" points="836.565,891.432 836.565,5128.93 " />
<polyline fill="none" vector-effect="none" points="836.565,5128.93 3761.57,5128.93 " />
<polyline fill="none" vector-effect="none" points="3761.57,891.432 3761.57,5128.93 " />
<polyline fill="none" vector-effect="none" points="536.565,628.932 536.565,5428.93 " />
<polyline fill="none" vector-effect="none" points="8876.81,2072.13 5351.81,2072.13 " />
<polyline fill="none" vector-effect="none" points="8876.81,4172.13 8876.81,2072.13 " />
<polyline fill="none" vector-effect="none" points="8876.81,4172.13 8576.81,4172.13 " />
<polyline fill="none" vector-effect="none" points="5651.81,4172.13 5761.07,4138.49 5871.11,4107.48 5981.86,4079.1 6093.25,4053.37 6205.23,4030.31 6317.73,4009.94 6430.68,3992.25 6544.02,3977.27 6657.68,3965.01 6771.61,3955.46 6885.73,3948.63 6999.99,3944.54 7114.31,3943.17 7228.62,3944.54 7342.88,3948.63 7457,3955.46 7570.93,3965.01 7684.59,3977.27 7797.93,3992.25 7910.88,4009.94 8023.38,4030.31 8135.36,4053.37 8246.75,4079.1 8357.5,4107.48 8467.54,4138.49 8576.81,4172.13 " />
<polyline fill="none" vector-effect="none" points="5651.81,4172.13 5351.81,4172.13 " />
<polyline fill="none" vector-effect="none" points="5351.81,4172.13 5351.81,2072.13 " />
</g>

<g fill="none" stroke="#000000" stroke-opacity="1" stroke-width="1" stroke-linecap="square" stroke-linejoin="bevel" transform="matrix(1,0,0,1,0,0)"
font-family="Arial" font-size="12" font-weight="400" font-style="normal" 
>
</g>
</g>
</svg>
